<svg width="96" height="45" viewBox="0 0 96 45" fill="none" xmlns="http://www.w3.org/2000/svg">
<path d="M27.0672 40.2402L22.6348 37.6279V5.19214L27.0672 7.80442L31.2886 5.19214V37.6279L27.0672 40.2402Z" fill="white" stroke="black" stroke-width="1.29808" stroke-linejoin="bevel"/>
<path d="M1 26.8268V5.19214L5.32692 7.78829L9.65385 5.19214V26.8268L5.32692 29.2066L1 26.8268Z" fill="white" stroke="black" stroke-width="1.29808" stroke-linejoin="bevel"/>
<path d="M26.9619 40.2402V7.78829L31.2888 5.19214V37.6441L26.9619 40.2402Z" fill="white" stroke="black" stroke-width="1.29808" stroke-linejoin="bevel"/>
<path d="M5.32715 29.2065V7.78825L9.65407 5.40845V26.8267L5.32715 29.2065Z" fill="white" stroke="black" stroke-width="1.29808" stroke-linejoin="bevel"/>
<path d="M5.32715 40.0238V35.9565L9.65407 33.5334V37.644L5.32715 40.0238Z" fill="white" stroke="black" stroke-width="1.29808" stroke-linejoin="bevel"/>
<path d="M1 33.5336L5.32692 31.1538L9.65385 33.5336L5.32692 35.9134L1 33.5336Z" fill="white" stroke="black" stroke-width="1.29808" stroke-linejoin="bevel"/>
<path d="M1 37.644V33.5334L5.32692 35.9133L9.65385 33.5334V37.644L5.32692 40.0238L1 37.644Z" fill="white" stroke="black" stroke-width="1.29808" stroke-linejoin="bevel"/>
<path d="M40.2021 16.8748H42.1709V2.31473L49.9377 16.8748H53.5723V1.62243H51.6252V16.1825L43.8368 1.62243H40.2021V16.8748Z" fill="white"/>
<path d="M56.1634 11.4878C56.1634 14.6897 58.4351 17.0912 61.875 17.0912C65.2932 17.0912 67.5649 14.6897 67.5649 11.4878C67.5649 8.30752 65.2932 5.90608 61.875 5.90608C58.4351 5.90608 56.1634 8.30752 56.1634 11.4878ZM58.0673 11.4878C58.0673 9.32435 59.4086 7.55031 61.875 7.55031C64.3197 7.55031 65.661 9.32435 65.661 11.4878C65.661 13.6729 64.3197 15.4469 61.875 15.4469C59.4086 15.4469 58.0673 13.6729 58.0673 11.4878Z" fill="white"/>
<path d="M74.7682 17.0912C77.1264 17.0912 78.6624 15.9229 79.398 14.2138V16.8748H81.3018V0.973389H79.398V8.78348C78.684 7.11762 77.1696 5.90608 74.7682 5.90608C71.6961 5.90608 69.7273 8.22098 69.7273 11.4878C69.7273 14.7546 71.6961 17.0912 74.7682 17.0912ZM71.6528 11.4878C71.6528 8.80512 73.3187 7.55031 75.3956 7.55031C77.4941 7.55031 79.3331 8.87002 79.3331 11.4878C79.3331 14.1272 77.4941 15.4469 75.3956 15.4469C73.3187 15.4469 71.6528 14.1705 71.6528 11.4878Z" fill="white"/>
<path d="M83.925 11.358C83.925 14.5383 85.6991 17.0912 89.2039 17.0912C92.514 17.0912 93.9419 15.1008 94.3746 13.1104H92.4707C92.1029 14.6032 91.0212 15.5551 89.1822 15.5551C86.9539 15.5551 85.8505 13.9542 85.7856 11.8556H94.3313V11.1633C94.3313 7.83156 92.2544 5.90608 89.0741 5.90608C86.002 5.90608 83.925 7.87483 83.925 11.358ZM85.8072 10.4926C85.9587 8.5455 87.3 7.4205 89.0741 7.4205C90.9995 7.4205 92.3193 8.5455 92.4491 10.4926H85.8072Z" fill="white"/>
<path d="M40.2021 39.3748H42.1709V32.9494H49.3752V31.2835H42.1709V25.8099H50.3271V24.1224H40.2021V39.3748Z" fill="white"/>
<path d="M51.8745 36.3893C51.8745 37.5143 52.3505 39.5912 55.5091 39.5912C58.1702 39.5912 59.425 38.2282 59.9226 36.7138V38.0768C59.9226 38.8989 60.3986 39.3748 61.2207 39.3748H63.1894V37.7306H61.6101V33.2306C61.6101 30.3316 59.9442 28.4061 56.8289 28.4061C54.0164 28.4061 52.3505 30.007 52.1125 32.4518H54.0164C54.1894 30.6561 55.2928 29.9638 56.7856 29.9638C58.7327 29.9638 59.5981 30.8941 59.6846 32.8412L55.4659 33.2522C52.913 33.4902 51.8745 34.6801 51.8745 36.3893ZM53.7784 36.1513C53.7784 35.1128 54.4707 34.745 55.7904 34.6152L59.6846 34.2042C59.6846 36.3676 58.1486 38.0118 55.812 38.0118C54.5789 38.0118 53.7784 37.3844 53.7784 36.1513Z" fill="white"/>
<path d="M65.2167 30.1152V39.3748H67.1421V30.2667H72.8104V28.6224H66.7311C65.7143 28.6224 65.2167 29.0984 65.2167 30.1152Z" fill="white"/>
<path d="M74.7658 39.3748H76.6913V34.9181C76.6913 32.0407 77.7514 30.0503 80.023 30.0503C81.624 30.0503 82.1649 31.2186 82.1649 33.2955V39.3748H84.0903V34.9181C84.0903 32.0407 85.1504 30.0503 87.4221 30.0503C89.023 30.0503 89.5639 31.2186 89.5639 33.2955V39.3748H91.4894V33.0575C91.4894 30.1801 90.3211 28.4061 87.8764 28.4061C85.6913 28.4061 84.3932 29.7042 83.8091 31.3051C83.4413 29.5094 82.4028 28.4061 80.5855 28.4061C78.4653 28.4061 77.2322 29.7258 76.6913 31.3268V28.6224H74.7658V39.3748Z" fill="white"/>
<path d="M22.6348 5.1921L26.9617 2.59595L31.2886 5.1921L26.9617 7.78826L22.6348 5.1921Z" fill="white" stroke="black" stroke-width="1.29808" stroke-linejoin="bevel"/>
<path d="M5.32715 29.2065V33.5335" stroke="white" stroke-width="1.29808" stroke-linejoin="bevel"/>
<path d="M26.9618 26.8268L9.61123 5.19214L5.32715 7.78831L26.9618 35.4806V26.8268Z" fill="white"/>
<path d="M9.61123 5.19214L10.1176 4.78608L9.76153 4.34214L9.27486 4.63707L9.61123 5.19214ZM26.9618 26.8268H27.6108V26.5986L27.4681 26.4207L26.9618 26.8268ZM26.9618 35.4806L26.4503 35.8802L27.6108 35.4806H26.9618ZM5.32715 7.78831L4.99077 7.23323L4.36577 7.61199L4.81569 8.18788L5.32715 7.78831ZM9.10491 5.5982L26.4554 27.2328L27.4681 26.4207L10.1176 4.78608L9.10491 5.5982ZM26.3127 26.8268V35.4806H27.6108V26.8268H26.3127ZM27.4732 35.081L5.83861 7.38873L4.81569 8.18788L26.4503 35.8802L27.4732 35.081ZM5.66352 8.34338L9.94761 5.74721L9.27486 4.63707L4.99077 7.23323L5.66352 8.34338Z" fill="black"/>
<path d="M1 5.1921L5.32692 2.59595L9.65385 5.1921L5.32692 7.78826L1 5.1921Z" fill="white" stroke="black" stroke-width="1.29808" stroke-linejoin="bevel"/>
<path d="M5.32715 16.0095L22.4635 37.6441L26.9618 40.2403V35.2643L5.32715 7.78833V16.0095Z" fill="white" stroke="black" stroke-width="1.29808" stroke-linejoin="bevel"/>
</svg>
